<?xml version="1.0" encoding="UTF-8"?><svg id="Layer_1" xmlns="http://www.w3.org/2000/svg" viewBox="0 0 140.91 40.42"><defs><style>.cls-1{letter-spacing:-.08em;}.cls-2{letter-spacing:.02em;}.cls-3{font-family:Stereofunk, Stereofunk;font-size:42.1px;isolation:isolate;}.cls-3,.cls-4{fill:#fff;}.cls-4{fill-rule:evenodd;stroke-width:0px;}</style></defs><text class="cls-3" transform="translate(2.44 37.89)"><tspan class="cls-2" x="0" y="0" xml:space="preserve">TR   </tspan><tspan class="cls-1" x="76.5" y="0">Z</tspan><tspan class="cls-2" x="104.07" y="0">A</tspan></text><path class="cls-4" d="M63.5,4.7c9.39,0,17.08,7.68,17.08,17.08-8.9-.85-16.1-8.05-17.08-17.08h0ZM80.7,22.02c0,9.39-7.68,17.08-17.08,17.08.85-9.03,8.05-16.22,17.08-17.08h0ZM63.38,39.1c-9.39,0-17.08-7.68-17.08-17.08,9.03.85,16.22,8.05,17.08,17.08h0ZM46.3,21.77c0-9.39,7.68-17.08,17.08-17.08-.85,9.03-8.05,16.22-17.08,17.08h0ZM63.5,8.24h0c0,7.44,6.1,13.66,13.66,13.66h0c-7.44,0-13.66,6.1-13.66,13.66h0c0-7.44-6.1-13.66-13.66-13.66h0c7.56,0,13.66-6.1,13.66-13.66h0ZM63.38,14.58h0c0,4.03,3.29,7.32,7.32,7.32h0c-4.03,0-7.32,3.29-7.32,7.32h0c0-4.03-3.29-7.32-7.32-7.32h0c4.03,0,7.32-3.29,7.32-7.32h0ZM63.38,17.51h0c0,2.44,2.07,4.51,4.51,4.51h0c-2.44,0-4.51,2.07-4.51,4.51h0c0-2.44-2.07-4.51-4.51-4.51h0c2.44,0,4.51-2.07,4.51-4.51h0Z"/></svg>